#!OML:ASF F:\VICON\USERDATA\INSTALL\rory3\rory3.ASF
:FULLY-SPECIFIED
:DEGREES
36
root 1.0148251735576517 17.957940818504206 15.767697545887746 -4.480257121750977 -1.574953951053204 0.18127890485761133
lfemur -6.047039249209508 -3.1901668985319813 -25.386076145554195
ltibia 30.108894605684767
lfoot -10.914693601741183 -0.5911991954342022
ltoes -7.702735756433295
rfemur -19.00488940338205 -5.949704653869062 24.31429832751384
rtibia 67.75699643768073
rfoot 4.444526879024644 -7.2098763532117225
rtoes 6.389905978717618
lowerback 11.551771656822849 0.9332552193674245 -0.8592429920893774
upperback 0.3860135938048833 0.996135361372551 0.6634176324219825
thorax -6.157179350317707 0.8692251398287296 0.7974817865987441
lowerneck -16.947946720636246 -3.2981887514548447 -2.891488934372775
upperneck 21.694959569602613 -4.687326623297686 1.092479259799743
head 9.726850653589661 -2.0979832113162145 0.15210542456472678
lclavicle 2.9992365637238105e-16 5.589782633795261e-17
lhumerus -32.51816912332185 7.34168074160509 79.52179483057822
lradius 24.329236170475763
lwrist 7.423365961617565
lhand -29.167686939794 19.440293638608974
lfingers 7.125020000000001
lthumb -2.511472188729944 49.05490401575176
rclavicle 2.98086475685167e-16 5.45785831144969e-17
rhumerus -28.051952988578375 -20.875063697902906 -78.79340325734181
rradius 30.109951786774108
rwrist 3.413048257069591
rhand -17.739397626753366 23.27908881633077
rfingers 7.125020000000001
rthumb 8.444640918025156 -6.61257982673775
37
root 1.004078960642279 17.94039873963976 16.71958891418317 -4.206536073486047 -0.7265106038771785 0.45517953044584747
lfemur -3.4940223452009294 -3.279333970810748 -25.852141557169894
ltibia 30.254367906810547
lfoot -11.993057694664333 -0.025323155701135747
ltoes -8.037780059832606
rfemur -22.846244299762606 -6.075462371474441 24.16603179674444
rtibia 62.10429036881959
rfoot 0.37194735442034155 -7.617944572205
rtoes 5.544656900681067
lowerback 11.801052846196827 0.4589629302691768 -1.1582743717862418
upperback 0.43850702681325554 0.38583226095380646 0.8295918730878262
thorax -6.1898666793905015 0.5797433543265837 1.248610753709752
lowerneck -17.00723473422225 -3.287348277075088 -2.908231058859501
upperneck 21.641250449641248 -4.67287823326464 1.2097953422903234
head 9.69384331854215 -2.0714988817729956 0.14858974765860528
lclavicle 2.999235230782193e-16 5.589773062204367e-17
lhumerus -31.00894115626811 5.988613316774984 80.0652329763606
lradius 25.65675528550039
lwrist 7.3792760626250615
lhand -29.311278823586715 19.59873111824969
lfingers 7.125020000000001
lthumb -2.5732922550693855 49.46235887350939
rclavicle 2.980865285151238e-16 5.457862105064705e-17
rhumerus -29.445874891501436 -21.26158838275551 -78.3245397847574
rradius 31.034762962084855
rwrist 2.80111106991913
rhand -17.958333130049372 23.49910118894855
rfingers 7.125020000000001
rthumb 8.315267797247122 -6.200482537631239
38
root 0.98708899821887 17.919259920808123 17.566576603053576 -3.7557648872059586 0.026887694978689425 0.6435087128594796
lfemur -1.7560678457897545 -3.1781696029094055 -26.341653427708273
ltibia 30.76468854297113
lfoot -12.348035703160154 1.0885355225955564
ltoes -6.939326985941851
rfemur -25.974764205232468 -5.569734318447041 23.813758891634468
rtibia 54.25157195869212
rfoot -2.950015992294965 -7.597363075837931
rtoes 4.952400598853076
lowerback 11.926677415647593 -0.03094414521038641 -1.791735132504199
upperback 0.5022748908426722 -0.08362039891832884 1.06847129749112
thorax -6.1857104435953225 0.278512002538171 1.7099074875343339
lowerneck -17.06835083220399 -3.2387996383048576 -2.8865336005546403
upperneck 21.650602189876796 -4.658349947674937 1.2679946712550645
head 9.685933702045592 -2.061358145834099 0.15237578650957537
lclavicle 2.9992379625937518e-16 5.58979267880448e-17
lhumerus -29.658288866133777 4.2434893780109855 80.75926672708269
lradius 26.788270711032382
lwrist 7.454601829700228
lhand -29.224752087026538 19.780002716971214
lfingers 7.125020000000001
lthumb -2.60108756796636 49.41938978600787
rclavicle 2.9808605298057756e-16 5.4578279578666505e-17
rhumerus -30.890850650784813 -21.153362104811713 -77.95994237594388
rradius 31.49164585183454
rwrist 2.0367398003519983
rhand -17.982183430945955 23.75347559872938
rfingers 7.125020000000001
rthumb 8.272933544654837 -6.053082454394644
39
root 0.9559230041549546 17.896478220525204 18.058329537599143 -3.210540071486795 0.7621183016154761 0.9437589368632948
lfemur 0.5181798400592461 -3.128558305741998 -26.89707096778959
ltibia 30.39851397362324
lfoot -12.753561033659306 1.3328796000550307
ltoes -6.763276246992794
rfemur -28.074134670183362 -4.659798415024471 23.20307881870357
rtibia 45.308072222831996
rfoot -5.212189661841231 -7.899066924908418
rtoes 4.319273609842439
lowerback 11.85867787901068 -0.3730888087508498 -2.288987449328566
upperback 0.4832181512888731 -0.4767228261361439 1.2383519360471489
thorax -6.098183539426156 0.08080708090388475 2.2965077445460658
lowerneck -16.99379689850663 -3.144991283791575 -2.7877692401600753
upperneck 21.60648094809737 -4.67517731175502 1.3113047823849258
head 9.655115977457866 -2.053461468923961 0.1818827535721122
lclavicle 2.9992365300605174e-16 5.589782392065808e-17
lhumerus -28.497143785658377 2.964121486657894 80.93854034768934
lradius 27.77463403348539
lwrist 7.7523657612547945
lhand -29.246115085907604 20.052406832977614
lfingers 7.125020000000001
lthumb -2.5683536688332147 49.85662115130342
rclavicle 2.980855835529824e-16 5.457794249196723e-17
rhumerus -31.677950423740054 -20.881555767770564 -77.67215392383052
rradius 31.1512437327053
rwrist 1.6346763248993224
rhand -17.97596085819685 23.73835527391222
rfingers 7.125020000000001
rthumb 8.212449267129013 -6.253755779881855
40
root 0.9129958734063954 17.871022196494895 18.670404262121572 -2.5768434839027994 1.439355247015722 1.134835413450427
lfemur 3.0504181933772037 -2.959613916418409 -27.145957757854685
ltibia 28.741329363250333
lfoot -12.607143368520282 0.98139703869911
ltoes -6.901591139889955
rfemur -28.726054990592598 -3.1155750656517878 22.435592680283584
rtibia 36.95578078638145
rfoot -6.432858303122705 -8.873575258671398
rtoes 3.3079668146697703
lowerback 11.61332083546055 -0.6695222935713538 -2.9182424977763706
upperback 0.47081460807296743 -0.8612114676889993 1.2892624621688829
thorax -5.996750900498103 -0.08931686415068904 2.748409249385751
lowerneck -17.015522011035927 -3.0900185187701044 -2.740061974248634
upperneck 21.573871521833784 -4.697882294533777 1.3934521609398054
head 9.638049268587604 -2.0602804842425293 0.21099219331909347
lclavicle 2.999244686619158e-16 5.58984096270499e-17
lhumerus -27.23349599126873 1.992570428317361 81.03650044304291
lradius 28.528398078047687
lwrist 8.129006308712027
lhand -29.186052521985168 20.240323481363344
lfingers 7.125020000000001
lthumb -2.5449565227377526 49.9664942158664
rclavicle 2.9808535877488154e-16 5.457778108324533e-17
rhumerus -32.43183363563065 -20.914779695529262 -77.4500461390468
rradius 30.017608664659104
rwrist 1.979628944761333
rhand -17.93146200126329 23.85886334534494
rfingers 7.125020000000001
rthumb 8.178926023115208 -6.321255111487272
41
root 0.8563850069322689 17.831947756037692 19.46017144169122 -2.0046688070211336 2.0674192317304545 1.30949176397203
lfemur 6.075094880194706 -2.492311201908977 -26.807519597272012
ltibia 26.558338425713863
lfoot -11.435530630669074 0.526411680474892
ltoes -7.797609105976718
rfemur -28.356108005713743 -0.7929168403628895 21.393416351408547
rtibia 30.775123583790794
rfoot -6.654820010931014 -10.238528873471807
rtoes 2.1807588644616835
lowerback 11.292810318809202 -0.9610117460487426 -3.5464560697861387
upperback 0.45699978530795465 -1.156305422538815 1.3571153868627914
thorax -5.87547489780022 -0.29582273478937926 3.1631202060457744
lowerneck -17.02512879338452 -3.0772868490355285 -2.6964600915807724
upperneck 21.529388493356514 -4.719355135378271 1.4382515391867798
head 9.603087030805964 -2.0798043164003217 0.23522597813214244
lclavicle 2.9992450764092564e-16 5.589843761710832e-17
lhumerus -26.004782314338907 0.6930120257735788 81.24234228147242
lradius 29.051523398626006
lwrist 8.578154295184406
lhand -29.07591891242169 20.26500988473219
lfingers 7.125020000000001
lthumb -2.3311809274896063 50.28949014152233
rclavicle 2.980854385435299e-16 5.4577838363538915e-17
rhumerus -33.19318377375704 -21.30808574131138 -77.06626745260482
rradius 28.864418162181067
rwrist 2.5674592656997346
rhand -18.01418822478709 23.66059828902533
rfingers 7.125020000000001
rthumb 8.05184068460121 -6.5887236374491955
42
root 0.8030194045396025 17.782095969337487 20.108941735292092 -1.5828169382829569 2.6113824775768415 1.46121554897175
lfemur 8.94093030979601 -1.9691505554969264 -26.487912028867896
ltibia 24.053680219621505
lfoot -10.135318554296859 -0.8013115793653265
ltoes -8.18063351745119
rfemur -27.829259806611383 1.9586587291921536 19.93987001752968
rtibia 27.623562001376357
rfoot -6.723689441162255 -11.615586645331373
rtoes 0.818916430755547
lowerback 11.02609791438037 -1.1431627135402744 -3.9399119783728382
upperback 0.3964478267704713 -1.4972176499377052 1.3727477322354809
thorax -5.757967673115338 -0.4246838294364331 3.6616305019913042
lowerneck -17.066866291567326 -3.0705069855095597 -2.6199215524238206
upperneck 21.51041749645486 -4.741258992592363 1.498872163789597
head 9.58862076061824 -2.090584965378597 0.25154110154290904
lclavicle 2.9992450709805074e-16 5.58984372272806e-17
lhumerus -25.09099794526408 -0.8547600612540305 81.47065207049914
lradius 29.312997023872953
lwrist 8.801717482012226
lhand -29.029886216611526 20.220916545571445
lfingers 7.125020000000001
lthumb -2.285124676482474 50.221960682231796
rclavicle 2.9808543856666297e-16 5.457783838015028e-17
rhumerus -34.138870818047835 -22.127044210619335 -76.43033180230172
rradius 27.775284324718974
rwrist 3.199910147923175
rhand -18.03368212896248 23.622973781072954
rfingers 7.125020000000001
rthumb 7.933931555968189 -6.796844802412037
